# xmcd
#
# Track frame offsets: 
#        150
#        12354
#        23550
#        35836
#        45288
#        55110
#        64246
#        74378
#        87068
#        100165
#        111474
#        120854
#        132614
#        146316
#        157894
#        170379
#        182065
#        193844
#        218840
#        231707
#        240814
#        252934
#
# Disc length: 3514 seconds
#
# Revision: 2
# Processed by: cddbd v1.5.2PL0 Copyright (c) Steve Scherf et al.
# Submitted via: ExactAudioCopyFreeDBPlugin 1.0
#
DISCID=2c0db816
DTITLE=Jackie Wilson - Titan Of Soul Disc 1
DYEAR=1900
DGENRE=Soul
TTITLE0=Reet Pettie (Finest Girl You Ever Want To Meet)-1957
TTITLE1=To Be Loved-1958
TTITLE2=Lonely Teardrops-1958
TTITLE3=That's Why (I Love You So)-1958
TTITLE4=I'll Be Satisfied-1959
TTITLE5=You Better Know It (from the movie 'Go Johnny Go')-1959
TTITLE6=Talk That Talk-1959
TTITLE7=Night-1960
TTITLE8=Doggin' Around-1960
TTITLE9=New Girl In Town-1960
TTITLE10=(You Were Made For) All My Love-1960
TTITLE11=A Woman, A Lover, A Friend-1960
TTITLE12=Alone At Last-1960
TTITLE13=Am I The Man-1960
TTITLE14=Cry-1960
TTITLE15=My Yiddish Momme-1960
TTITLE16=The Tear Of The Year-1961
TTITLE17=St. James Infirmary-1961
TTITLE18=My Empty Arms-1961
TTITLE19=Please Tell Me Why-1961
TTITLE20=Your One And Only Love-1961
TTITLE21=I'm Coming On Back To You-1961
EXTD=
EXTT0=
EXTT1=
EXTT2=
EXTT3=
EXTT4=
EXTT5=
EXTT6=
EXTT7=
EXTT8=
EXTT9=
EXTT10=
EXTT11=
EXTT12=
EXTT13=
EXTT14=
EXTT15=
EXTT16=
EXTT17=
EXTT18=
EXTT19=
EXTT20=
EXTT21=
PLAYORDER=
